<svg xmlns="http://www.w3.org/2000/svg" width="18" height="18" fill="none" viewBox="0 0 18 18"><path fill="#277E74" d="M9.00001 0.666992C7.90566 0.666992 6.82202 0.88254 5.81098 1.30133C4.79993 1.72012 3.88127 2.33395 3.10745 3.10777C1.54465 4.67057 0.666672 6.79019 0.666672 9.00033C0.666672 11.2105 1.54465 13.3301 3.10745 14.8929C3.88127 15.6667 4.79993 16.2805 5.81098 16.6993C6.82202 17.1181 7.90566 17.3337 9.00001 17.3337C11.2101 17.3337 13.3298 16.4557 14.8926 14.8929C16.4554 13.3301 17.3333 11.2105 17.3333 9.00033C17.3333 7.90598 17.1178 6.82234 16.699 5.8113C16.2802 4.80025 15.6664 3.88159 14.8926 3.10777C14.1187 2.33395 13.2001 1.72012 12.189 1.30133C11.178 0.88254 10.0944 0.666992 9.00001 0.666992V0.666992ZM9.00001 2.33366C10.7681 2.33366 12.4638 3.03604 13.7141 4.28628C14.9643 5.53652 15.6667 7.23222 15.6667 9.00033C15.6667 10.7684 14.9643 12.4641 13.7141 13.7144C12.4638 14.9646 10.7681 15.667 9.00001 15.667C7.2319 15.667 5.5362 14.9646 4.28596 13.7144C3.03572 12.4641 2.33334 10.7684 2.33334 9.00033C2.33334 7.23222 3.03572 5.53652 4.28596 4.28628C5.5362 3.03604 7.2319 2.33366 9.00001 2.33366V2.33366ZM9.00001 4.00033C7.67392 4.00033 6.40215 4.52711 5.46447 5.46479C4.52679 6.40247 4.00001 7.67424 4.00001 9.00033C4.00001 10.3264 4.52679 11.5982 5.46447 12.5359C6.40215 13.4735 7.67392 14.0003 9.00001 14.0003C10.3261 14.0003 11.5979 13.4735 12.5355 12.5359C13.4732 11.5982 14 10.3264 14 9.00033C14 7.67424 13.4732 6.40247 12.5355 5.46479C11.5979 4.52711 10.3261 4.00033 9.00001 4.00033ZM9.00001 5.66699C9.88406 5.66699 10.7319 6.01818 11.357 6.6433C11.9821 7.26842 12.3333 8.11627 12.3333 9.00033C12.3333 9.88438 11.9821 10.7322 11.357 11.3573C10.7319 11.9825 9.88406 12.3337 9.00001 12.3337C8.11595 12.3337 7.2681 11.9825 6.64298 11.3573C6.01786 10.7322 5.66667 9.88438 5.66667 9.00033C5.66667 8.11627 6.01786 7.26842 6.64298 6.6433C7.2681 6.01818 8.11595 5.66699 9.00001 5.66699V5.66699ZM9.00001 7.33366C8.55798 7.33366 8.13406 7.50925 7.82149 7.82181C7.50893 8.13438 7.33334 8.5583 7.33334 9.00033C7.33334 9.44235 7.50893 9.86628 7.82149 10.1788C8.13406 10.4914 8.55798 10.667 9.00001 10.667C9.44203 10.667 9.86596 10.4914 10.1785 10.1788C10.4911 9.86628 10.6667 9.44235 10.6667 9.00033C10.6667 8.5583 10.4911 8.13438 10.1785 7.82181C9.86596 7.50925 9.44203 7.33366 9.00001 7.33366Z"/></svg>