<svg width="21" height="20" viewBox="0 0 21 20" fill="none" xmlns="http://www.w3.org/2000/svg">
<path d="M9.2561 1.66699V3.39199C6.23944 3.77533 3.86444 6.15033 3.4811 9.16699H1.7561V10.8337H3.4811C3.86444 13.8503 6.23944 16.2253 9.2561 16.6087V18.3337H10.9228V16.6087C13.9394 16.2253 16.3144 13.8503 16.6978 10.8337H18.4228V9.16699H16.6978C16.3144 6.15033 13.9394 3.77533 10.9228 3.39199V1.66699H9.2561ZM9.2561 5.06699V6.66699H10.9228V5.07533C13.0061 5.41699 14.6728 7.08366 15.0228 9.16699H13.4228V10.8337H15.0144C14.6728 12.917 13.0061 14.5837 10.9228 14.9337V13.3337H9.2561V14.9253C7.17277 14.5837 5.5061 12.917 5.1561 10.8337H6.7561V9.16699H5.16444C5.5061 7.08366 7.17277 5.41699 9.2561 5.06699ZM10.0894 9.16699C9.86842 9.16699 9.65646 9.25479 9.50018 9.41107C9.3439 9.56735 9.2561 9.77931 9.2561 10.0003C9.2561 10.2213 9.3439 10.4333 9.50018 10.5896C9.65646 10.7459 9.86842 10.8337 10.0894 10.8337C10.3105 10.8337 10.5224 10.7459 10.6787 10.5896C10.835 10.4333 10.9228 10.2213 10.9228 10.0003C10.9228 9.77931 10.835 9.56735 10.6787 9.41107C10.5224 9.25479 10.3105 9.16699 10.0894 9.16699Z" fill="#277E74"/>
</svg>
